<?xml version="1.0" encoding="UTF-8" standalone="no"?>
<svg
   xmlns:dc="http://purl.org/dc/elements/1.1/"
   xmlns:cc="http://creativecommons.org/ns#"
   xmlns:rdf="http://www.w3.org/1999/02/22-rdf-syntax-ns#"
   xmlns:svg="http://www.w3.org/2000/svg"
   xmlns="http://www.w3.org/2000/svg"
   xmlns:sodipodi="http://sodipodi.sourceforge.net/DTD/sodipodi-0.dtd"
   xmlns:inkscape="http://www.inkscape.org/namespaces/inkscape"
   width="24"
   height="24"
   viewBox="0 0 24 24"
   version="1.1"
   id="svg8"
   sodipodi:docname="ic_audio_speaker_on.svg"
   inkscape:version="0.92.4 5da689c313, 2019-01-14">
  <metadata
     id="metadata14">
    <rdf:RDF>
      <cc:Work
         rdf:about="">
        <dc:format>image/svg+xml</dc:format>
        <dc:type
           rdf:resource="http://purl.org/dc/dcmitype/StillImage" />
      </cc:Work>
    </rdf:RDF>
  </metadata>
  <defs
     id="defs12" />
  <sodipodi:namedview
     pagecolor="#ffffff"
     bordercolor="#666666"
     borderopacity="1"
     objecttolerance="10"
     gridtolerance="10"
     guidetolerance="10"
     inkscape:pageopacity="0"
     inkscape:pageshadow="2"
     inkscape:window-width="912"
     inkscape:window-height="720"
     id="namedview10"
     showgrid="false"
     inkscape:zoom="19.666667"
     inkscape:cx="8.1940676"
     inkscape:cy="12.231809"
     inkscape:window-x="124"
     inkscape:window-y="74"
     inkscape:window-maximized="0"
     inkscape:current-layer="svg8" />
  <path
     d="M 10.477949,5.2322267 7.0590117,7.79239 H 3.936695 C 3.4215128,7.79239 3,8.213881 3,8.729036 v 6.525291 c 0,0.515313 0.4215128,0.936648 0.936695,0.936648 h 3.1223167 l 3.4189373,2.560161 c 0.624463,0.468327 1.498712,0.0312 1.498712,-0.749316 V 5.9815427 c 0,-0.7805375 -0.88986,-1.2176382 -1.498712,-0.749316 z"
     id="path2"
     inkscape:connector-curvature="0"
     style="fill:#a7c6db;stroke-width:0.15611169" />
  <path
     d="m 15.067754,6.7620809 c -0.421512,-0.4214903 -1.124033,-0.4214903 -1.545391,0 -0.421512,0.4214904 -0.421512,1.1239741 0,1.5454641 2.029506,2.029399 2.029506,5.323426 0,7.352819 -0.421512,0.421492 -0.421512,1.123979 0,1.545314 0.218406,0.218546 0.499415,0.31221 0.764812,0.31221 0.265397,0 0.562173,-0.10912 0.764968,-0.327824 2.903754,-2.85677 2.903754,-7.539994 0.01561,-10.4279831 z"
     id="path4"
     inkscape:connector-curvature="0"
     style="fill:#a7c6db;stroke-width:0.15611169" />
  <path
     d="m 16.285458,4.3111925 c -0.421357,0.4214903 -0.421357,1.1239743 0,1.5454646 1.639216,1.6391299 2.544844,3.8090239 2.544844,6.1350259 0,2.326004 -0.905628,4.495894 -2.544844,6.135029 -0.421357,0.421485 -0.421357,1.123973 0,1.545465 C 16.50402,19.890565 16.785029,20 17.050426,20 17.331434,20 17.612443,19.890723 17.815393,19.687785 19.86051,17.642778 21,14.910891 21,12.007294 21,9.103693 19.875966,6.3874226 17.815393,4.3268029 17.409492,3.8897023 16.722582,3.8897023 16.285458,4.3111962 Z"
     id="path6"
     inkscape:connector-curvature="0"
     style="fill:#a7c6db;stroke-width:0.15611169" />
</svg>
